<svg width="215" height="316" viewBox="0 0 215 316" preserveAspectRatio="none" xmlns="http://www.w3.org/2000/svg" xmlns:xlink="http://www.w3.org/1999/xlink" overflow="hidden"><defs><filter id="fxhmjwwpwbhp0" x="-1" y="-1" width="300%" height="300%" filterUnits="objectBoundingBox" primitiveUnits="userSpaceOnUse"><feGaussianBlur result="blurOut" stdDeviation="2 2"/><feColorMatrix in="blurOut" result="blurOut2" type="matrix" values="0 0 0 0 0 0 0 0 0 0 0 0 0 0 0 0 0 0 0.4 0 "/><feOffset in="blurOut2" result="blurOut3" dx="4" dy="4"/><feBlend in="SourceGraphic" in2="blurOut3" mode="normal"/></filter></defs><g><rect x="28.5" y="99.6094" width="10" height="113.406" stroke="#A80036" fill="#FFFFFF" filter="url(#fxhmjwwpwbhp0)"/><rect x="168.5" y="121.961" width="10" height="30.3516" stroke="#A80036" fill="#FFFFFF" filter="url(#fxhmjwwpwbhp0)"/><rect x="168.5" y="182.664" width="10" height="30.3516" stroke="#A80036" fill="#FFFFFF" filter="url(#fxhmjwwpwbhp0)"/><line x1="33" y1="89.6094" x2="33" y2="231.016" stroke="#A80036" stroke-dasharray="5 5"/><line x1="173.5" y1="89.6094" x2="173.5" y2="231.016" stroke="#A80036" stroke-dasharray="5 5"/><text font-family="Arial" font-size="14" x="5" y="86.5332">Member</text><ellipse cx="33.5" cy="15" rx="8" ry="8" stroke="#A80036" stroke-width="2" fill="#FEFECE" filter="url(#fxhmjwwpwbhp0)"/><path d="M33.5 23 33.5 50M20.5 31 46.5 31M33.5 50 20.5 65M33.5 50 46.5 65" stroke="#A80036" stroke-width="2" fill="none" filter="url(#fxhmjwwpwbhp0)"/><text font-family="Arial" font-size="14" x="5" y="244.549">Member</text><ellipse cx="33.5" cy="257.625" rx="8" ry="8" stroke="#A80036" stroke-width="2" fill="#FEFECE" filter="url(#fxhmjwwpwbhp0)"/><path d="M33.5 265.625 33.5 292.625M20.5 273.625 46.5 273.625M33.5 292.625 20.5 307.625M33.5 292.625 46.5 307.625" stroke="#A80036" stroke-width="2" fill="none" filter="url(#fxhmjwwpwbhp0)"/><rect x="141.5" y="53" width="60" height="31.6094" stroke="#A80036" stroke-width="1.5" fill="#FEFECE" filter="url(#fxhmjwwpwbhp0)"/><text font-family="Arial" font-size="14" x="148.5" y="74.5332">System</text><rect x="141.5" y="230.016" width="60" height="31.6094" stroke="#A80036" stroke-width="1.5" fill="#FEFECE" filter="url(#fxhmjwwpwbhp0)"/><text font-family="Arial" font-size="14" x="148.5" y="251.549">System</text><rect x="28.5" y="99.6094" width="10" height="113.406" stroke="#A80036" fill="#FFFFFF" filter="url(#fxhmjwwpwbhp0)"/><rect x="168.5" y="121.961" width="10" height="30.3516" stroke="#A80036" fill="#FFFFFF" filter="url(#fxhmjwwpwbhp0)"/><rect x="168.5" y="182.664" width="10" height="30.3516" stroke="#A80036" fill="#FFFFFF" filter="url(#fxhmjwwpwbhp0)"/><path d="M156.5 117.961 166.5 121.961 156.5 125.961 160.5 121.961Z" stroke="#A80036" fill="#A80036"/><line x1="38.5" y1="121.961" x2="162.5" y2="121.961" stroke="#A80036"/><text font-family="Arial" font-size="13" x="45.5" y="117.105">Display Events List</text><path d="M49.5 148.313 39.5 152.313 49.5 156.313 45.5 152.313Z" stroke="#A80036" fill="#A80036"/><line x1="43.5" y1="152.313" x2="172.5" y2="152.313" stroke="#A80036" stroke-dasharray="2 2"/><text font-family="Arial" font-size="13" x="55.5" y="147.456">Events List</text><path d="M156.5 178.664 166.5 182.664 156.5 186.664 160.5 182.664Z" stroke="#A80036" fill="#A80036"/><line x1="38.5" y1="182.664" x2="162.5" y2="182.664" stroke="#A80036"/><text font-family="Arial" font-size="13" x="45.5" y="177.808">Edit Event</text><path d="M44.5 209.016 34.5 213.016 44.5 217.016 40.5 213.016Z" stroke="#A80036" fill="#A80036"/><line x1="38.5" y1="213.016" x2="172.5" y2="213.016" stroke="#A80036" stroke-dasharray="2 2"/><text font-family="Arial" font-size="13" x="50.5" y="208.159">Event Edited</text></g></svg>